<svg width="42" height="42" viewBox="12 8 42 42" fill="none" xmlns="http://www.w3.org/2000/svg">
<g filter="url(#filter0_d_1_217)">
<rect x="12" y="8" width="42" height="42" rx="21" fill="white" fill-opacity="0.1" shape-rendering="crispEdges"/>
<path fill-rule="evenodd" clip-rule="evenodd" d="M31.4078 21.9255C31.7251 22.2428 31.7251 22.7572 31.4078 23.0745L26.2949 28.1875H41.6666C42.1154 28.1875 42.4791 28.5513 42.4791 29C42.4791 29.4487 42.1154 29.8125 41.6666 29.8125H26.2949L31.4078 34.9255C31.7251 35.2428 31.7251 35.7572 31.4078 36.0745C31.0905 36.3918 30.5761 36.3918 30.2588 36.0745L23.7588 29.5745C23.4415 29.2572 23.4415 28.7428 23.7588 28.4255L30.2588 21.9255C30.5761 21.6082 31.0905 21.6082 31.4078 21.9255Z" fill="#0D1217"/>
</g>
</svg>