<svg width="66" height="66" viewBox="0 0 66 66" fill="none" xmlns="http://www.w3.org/2000/svg">
<g filter="url(#filter0_d_22_82)">
<rect x="12" y="8" width="42" height="42" rx="21" fill="white" fill-opacity="0.1" shape-rendering="crispEdges"/>
</g>
<path d="M30 29C30 29.5523 29.5523 30 29 30C28.4477 30 28 29.5523 28 29C28 28.4477 28.4477 28 29 28C29.5523 28 30 28.4477 30 29Z" fill="black"/>
<path d="M34 29C34 29.5523 33.5523 30 33 30C32.4477 30 32 29.5523 32 29C32 28.4477 32.4477 28 33 28C33.5523 28 34 28.4477 34 29Z" fill="black"/>
<path d="M38 29C38 29.5523 37.5523 30 37 30C36.4477 30 36 29.5523 36 29C36 28.4477 36.4477 28 37 28C37.5523 28 38 28.4477 38 29Z" fill="black"/>
<path fill-rule="evenodd" clip-rule="evenodd" d="M43.75 29C43.75 23.0629 38.9371 18.25 33 18.25C27.0629 18.25 22.25 23.0629 22.25 29C22.25 30.7183 22.6537 32.3445 23.3721 33.7869C23.4793 34.0021 23.5021 34.2219 23.4526 34.4068L22.857 36.6328C22.4493 38.1566 23.8434 39.5507 25.3672 39.143L27.5932 38.5474C27.7781 38.4979 27.9979 38.5207 28.2131 38.6279C29.6555 39.3463 31.2817 39.75 33 39.75C38.9371 39.75 43.75 34.9371 43.75 29ZM33 19.75C38.1086 19.75 42.25 23.8914 42.25 29C42.25 34.1086 38.1086 38.25 33 38.25C31.5189 38.25 30.1212 37.9025 28.8819 37.2852C28.3845 37.0375 27.7897 36.9421 27.2055 37.0984L24.9795 37.694C24.5707 37.8034 24.1966 37.4293 24.306 37.0205L24.9016 34.7945C25.0579 34.2103 24.9625 33.6155 24.7148 33.1181C24.0975 31.8788 23.75 30.4811 23.75 29C23.75 23.8914 27.8914 19.75 33 19.75Z" fill="black"/>
<defs>
<filter id="filter0_d_22_82" x="0" y="0" width="66" height="66" filterUnits="userSpaceOnUse" color-interpolation-filters="sRGB">
<feFlood flood-opacity="0" result="BackgroundImageFix"/>
<feColorMatrix in="SourceAlpha" type="matrix" values="0 0 0 0 0 0 0 0 0 0 0 0 0 0 0 0 0 0 127 0" result="hardAlpha"/>
<feOffset dy="4"/>
<feGaussianBlur stdDeviation="6"/>
<feComposite in2="hardAlpha" operator="out"/>
<feColorMatrix type="matrix" values="0 0 0 0 0.0509804 0 0 0 0 0.0392157 0 0 0 0 0.172549 0 0 0 0.06 0"/>
<feBlend mode="normal" in2="BackgroundImageFix" result="effect1_dropShadow_22_82"/>
<feBlend mode="normal" in="SourceGraphic" in2="effect1_dropShadow_22_82" result="shape"/>
</filter>
</defs>
</svg>
