<svg width="80" height="68" viewBox="0 0 80 68" fill="none" xmlns="http://www.w3.org/2000/svg">
<rect x="19" width="42" height="42" rx="21" fill="#F6695E"/>
<path d="M43.9 17.1L36.1 24.9M36.1 17.1L43.9 24.9M53 21C53 28.1797 47.1797 34 40 34C32.8203 34 27 28.1797 27 21C27 13.8203 32.8203 8 40 8C47.1797 8 53 13.8203 53 21Z" stroke="#522504" stroke-width="2" stroke-linecap="round" stroke-linejoin="round"/>
<path d="M43.9 17.1L36.1 24.9M36.1 17.1L43.9 24.9M53 21C53 28.1797 47.1797 34 40 34C32.8203 34 27 28.1797 27 21C27 13.8203 32.8203 8 40 8C47.1797 8 53 13.8203 53 21Z" stroke="white" stroke-width="2" stroke-linecap="round" stroke-linejoin="round"/>
<path d="M31.4062 62.2227H32.8711C32.8242 62.7812 32.668 63.2793 32.4023 63.7168C32.1367 64.1504 31.7637 64.4922 31.2832 64.7422C30.8027 64.9922 30.2188 65.1172 29.5312 65.1172C29.0039 65.1172 28.5293 65.0234 28.1074 64.8359C27.6855 64.6445 27.3242 64.375 27.0234 64.0273C26.7227 63.6758 26.4922 63.252 26.332 62.7559C26.1758 62.2598 26.0977 61.7051 26.0977 61.0918V60.3828C26.0977 59.7695 26.1777 59.2148 26.3379 58.7188C26.502 58.2227 26.7363 57.7988 27.041 57.4473C27.3457 57.0918 27.7109 56.8203 28.1367 56.6328C28.5664 56.4453 29.0488 56.3516 29.584 56.3516C30.2637 56.3516 30.8379 56.4766 31.3066 56.7266C31.7754 56.9766 32.1387 57.3223 32.3965 57.7637C32.6582 58.2051 32.8184 58.7109 32.877 59.2812H31.4121C31.373 58.9141 31.2871 58.5996 31.1543 58.3379C31.0254 58.0762 30.834 57.877 30.5801 57.7402C30.3262 57.5996 29.9941 57.5293 29.584 57.5293C29.248 57.5293 28.9551 57.5918 28.7051 57.7168C28.4551 57.8418 28.2461 58.0254 28.0781 58.2676C27.9102 58.5098 27.7832 58.8086 27.6973 59.1641C27.6152 59.5156 27.5742 59.918 27.5742 60.3711V61.0918C27.5742 61.5215 27.6113 61.9121 27.6855 62.2637C27.7637 62.6113 27.8809 62.9102 28.0371 63.1602C28.1973 63.4102 28.4004 63.6035 28.6465 63.7402C28.8926 63.877 29.1875 63.9453 29.5312 63.9453C29.9492 63.9453 30.2871 63.8789 30.5449 63.7461C30.8066 63.6133 31.0039 63.4199 31.1367 63.166C31.2734 62.9082 31.3633 62.5938 31.4062 62.2227ZM35.5781 56V65H34.1602V56H35.5781ZM39.9199 65.1172C39.4512 65.1172 39.0273 65.041 38.6484 64.8887C38.2734 64.7324 37.9531 64.5156 37.6875 64.2383C37.4258 63.9609 37.2246 63.6348 37.084 63.2598C36.9434 62.8848 36.873 62.4805 36.873 62.0469V61.8125C36.873 61.3164 36.9453 60.8672 37.0898 60.4648C37.2344 60.0625 37.4355 59.7188 37.6934 59.4336C37.9512 59.1445 38.2559 58.9238 38.6074 58.7715C38.959 58.6191 39.3398 58.543 39.75 58.543C40.2031 58.543 40.5996 58.6191 40.9395 58.7715C41.2793 58.9238 41.5605 59.1387 41.7832 59.416C42.0098 59.6895 42.1777 60.0156 42.2871 60.3945C42.4004 60.7734 42.457 61.1914 42.457 61.6484V62.252H37.5586V61.2383H41.0625V61.127C41.0547 60.873 41.0039 60.6348 40.9102 60.4121C40.8203 60.1895 40.6816 60.0098 40.4941 59.873C40.3066 59.7363 40.0566 59.668 39.7441 59.668C39.5098 59.668 39.3008 59.7188 39.1172 59.8203C38.9375 59.918 38.7871 60.0605 38.666 60.248C38.5449 60.4355 38.4512 60.6621 38.3848 60.9277C38.3223 61.1895 38.291 61.4844 38.291 61.8125V62.0469C38.291 62.3242 38.3281 62.582 38.4023 62.8203C38.4805 63.0547 38.5938 63.2598 38.7422 63.4355C38.8906 63.6113 39.0703 63.75 39.2812 63.8516C39.4922 63.9492 39.7324 63.998 40.002 63.998C40.3418 63.998 40.6445 63.9297 40.9102 63.793C41.1758 63.6562 41.4062 63.4629 41.6016 63.2129L42.3457 63.9336C42.209 64.1328 42.0312 64.3242 41.8125 64.5078C41.5938 64.6875 41.3262 64.834 41.0098 64.9473C40.6973 65.0605 40.334 65.1172 39.9199 65.1172ZM47.1328 63.7285V60.7051C47.1328 60.4785 47.0918 60.2832 47.0098 60.1191C46.9277 59.9551 46.8027 59.8281 46.6348 59.7383C46.4707 59.6484 46.2637 59.6035 46.0137 59.6035C45.7832 59.6035 45.584 59.6426 45.416 59.7207C45.248 59.7988 45.1172 59.9043 45.0234 60.0371C44.9297 60.1699 44.8828 60.3203 44.8828 60.4883H43.4766C43.4766 60.2383 43.5371 59.9961 43.6582 59.7617C43.7793 59.5273 43.9551 59.3184 44.1855 59.1348C44.416 58.9512 44.6914 58.8066 45.0117 58.7012C45.332 58.5957 45.6914 58.543 46.0898 58.543C46.5664 58.543 46.9883 58.623 47.3555 58.7832C47.7266 58.9434 48.0176 59.1855 48.2285 59.5098C48.4434 59.8301 48.5508 60.2324 48.5508 60.7168V63.5352C48.5508 63.8242 48.5703 64.084 48.6094 64.3145C48.6523 64.541 48.7129 64.7383 48.791 64.9062V65H47.3438C47.2773 64.8477 47.2246 64.6543 47.1855 64.4199C47.1504 64.1816 47.1328 63.9512 47.1328 63.7285ZM47.3379 61.1445L47.3496 62.0176H46.3359C46.0742 62.0176 45.8438 62.043 45.6445 62.0938C45.4453 62.1406 45.2793 62.2109 45.1465 62.3047C45.0137 62.3984 44.9141 62.5117 44.8477 62.6445C44.7812 62.7773 44.748 62.9277 44.748 63.0957C44.748 63.2637 44.7871 63.418 44.8652 63.5586C44.9434 63.6953 45.0566 63.8027 45.2051 63.8809C45.3574 63.959 45.541 63.998 45.7559 63.998C46.0449 63.998 46.2969 63.9395 46.5117 63.8223C46.7305 63.7012 46.9023 63.5547 47.0273 63.3828C47.1523 63.207 47.2188 63.041 47.2266 62.8848L47.6836 63.5117C47.6367 63.6719 47.5566 63.8438 47.4434 64.0273C47.3301 64.2109 47.1816 64.3867 46.998 64.5547C46.8184 64.7188 46.6016 64.8535 46.3477 64.959C46.0977 65.0645 45.8086 65.1172 45.4805 65.1172C45.0664 65.1172 44.6973 65.0352 44.373 64.8711C44.0488 64.7031 43.7949 64.4785 43.6113 64.1973C43.4277 63.9121 43.3359 63.5898 43.3359 63.2305C43.3359 62.8945 43.3984 62.5977 43.5234 62.3398C43.6523 62.0781 43.8398 61.8594 44.0859 61.6836C44.3359 61.5078 44.6406 61.375 45 61.2852C45.3594 61.1914 45.7695 61.1445 46.2305 61.1445H47.3379ZM51.4453 59.8672V65H50.0332V58.6602H51.3809L51.4453 59.8672ZM53.3848 58.6191L53.373 59.9316C53.2871 59.916 53.1934 59.9043 53.0918 59.8965C52.9941 59.8887 52.8965 59.8848 52.7988 59.8848C52.5566 59.8848 52.3438 59.9199 52.1602 59.9902C51.9766 60.0566 51.8223 60.1543 51.6973 60.2832C51.5762 60.4082 51.4824 60.5605 51.416 60.7402C51.3496 60.9199 51.3105 61.1211 51.2988 61.3438L50.9766 61.3672C50.9766 60.9688 51.0156 60.5996 51.0938 60.2598C51.1719 59.9199 51.2891 59.6211 51.4453 59.3633C51.6055 59.1055 51.8047 58.9043 52.043 58.7598C52.2852 58.6152 52.5645 58.543 52.8809 58.543C52.9668 58.543 53.0586 58.5508 53.1562 58.5664C53.2578 58.582 53.334 58.5996 53.3848 58.6191Z" fill="#0D1217"/>
</svg>
