<svg width="18" height="15" viewBox="0 0 18 15" fill="none" xmlns="http://www.w3.org/2000/svg">
<path d="M9.58353 5.625C9.58353 5.27982 9.30371 5 8.95853 5C8.61335 5 8.33353 5.27982 8.33353 5.625V6.20931L7.82734 5.91707C7.52841 5.74448 7.14617 5.8469 6.97358 6.14583C6.80099 6.44477 6.90341 6.82701 7.20234 6.9996L7.70812 7.29161L7.20215 7.58373C6.90322 7.75632 6.80079 8.13857 6.97338 8.4375C7.14597 8.73643 7.52822 8.83885 7.82715 8.66627L8.33353 8.37391V8.95833C8.33353 9.30351 8.61335 9.58333 8.95853 9.58333C9.30371 9.58333 9.58353 9.30351 9.58353 8.95833V8.37438L10.0891 8.66627C10.388 8.83885 10.7703 8.73643 10.9429 8.4375C11.1155 8.13857 11.013 7.75632 10.7141 7.58373L10.2081 7.29161L10.7139 6.9996C11.0128 6.82701 11.1153 6.44477 10.9427 6.14583C10.7701 5.8469 10.3878 5.74448 10.0889 5.91707L9.58353 6.20884V5.625Z" fill="#2C2D3A"/>
<path d="M4.56888 5C4.91406 5 5.19388 5.27982 5.19388 5.625V6.20884L5.69925 5.91707C5.99819 5.74448 6.38043 5.8469 6.55302 6.14583C6.72561 6.44477 6.62319 6.82701 6.32425 6.9996L5.81847 7.29161L6.32445 7.58373C6.62338 7.75632 6.7258 8.13857 6.55321 8.4375C6.38063 8.73643 5.99838 8.83885 5.69945 8.66627L5.19388 8.37438V8.95833C5.19388 9.30351 4.91406 9.58333 4.56888 9.58333C4.2237 9.58333 3.94388 9.30351 3.94388 8.95833V8.37391L3.4375 8.66627C3.13857 8.83885 2.75632 8.73643 2.58373 8.4375C2.41115 8.13857 2.51357 7.75632 2.8125 7.58373L3.31847 7.29161L2.8127 6.9996C2.51376 6.82701 2.41134 6.44477 2.58393 6.14583C2.75652 5.8469 3.13876 5.74448 3.4377 5.91707L3.94388 6.20931V5.625C3.94388 5.27982 4.2237 5 4.56888 5Z" fill="#2C2D3A"/>
<path d="M13.9734 5.625C13.9734 5.27982 13.6936 5 13.3484 5C13.0032 5 12.7234 5.27982 12.7234 5.625V6.20931L12.2172 5.91707C11.9183 5.74448 11.536 5.8469 11.3634 6.14583C11.1908 6.44477 11.2933 6.82701 11.5922 6.9996L12.098 7.29161L11.592 7.58373C11.2931 7.75632 11.1907 8.13857 11.3632 8.4375C11.5358 8.73643 11.9181 8.83885 12.217 8.66627L12.7234 8.37391V8.95833C12.7234 9.30351 13.0032 9.58333 13.3484 9.58333C13.6936 9.58333 13.9734 9.30351 13.9734 8.95833V8.37438L14.479 8.66627C14.7779 8.83885 15.1601 8.73643 15.3327 8.4375C15.5053 8.13857 15.4029 7.75632 15.104 7.58373L14.598 7.29161L15.1038 6.9996C15.4027 6.82701 15.5051 6.44477 15.3325 6.14583C15.1599 5.8469 14.7777 5.74448 14.4788 5.91707L13.9734 6.20884V5.625Z" fill="#2C2D3A"/>
<path fill-rule="evenodd" clip-rule="evenodd" d="M7.24465 2.57497e-07C5.71319 -1.26072e-05 4.50016 -2.27864e-05 3.55082 0.127613C2.5738 0.25897 1.78301 0.535734 1.15937 1.15937C0.535734 1.78301 0.25897 2.5738 0.127613 3.55082C-2.27988e-05 4.50016 -1.26072e-05 5.71318 2.57497e-07 7.24464V7.33868C-1.26072e-05 8.87014 -2.27864e-05 10.0832 0.127613 11.0325C0.25897 12.0095 0.535734 12.8003 1.15937 13.424C1.78301 14.0476 2.5738 14.3244 3.55082 14.4557C4.50015 14.5834 5.71317 14.5833 7.24462 14.5833H10.672C12.2035 14.5833 13.4165 14.5834 14.3659 14.4557C15.3429 14.3244 16.1337 14.0476 16.7573 13.424C17.3809 12.8003 17.6577 12.0095 17.7891 11.0325C17.9167 10.0832 17.9167 8.87017 17.9167 7.33871V7.24466C17.9167 5.71321 17.9167 4.50015 17.7891 3.55082C17.6577 2.5738 17.3809 1.78301 16.7573 1.15937C16.1337 0.535734 15.3429 0.25897 14.3659 0.127613C13.4165 -2.27988e-05 12.2035 -1.26072e-05 10.672 2.57497e-07H7.24465ZM2.04325 2.04325C2.39593 1.69058 2.87897 1.47919 3.71737 1.36647C4.57376 1.25133 5.70265 1.25 7.29167 1.25H10.625C12.214 1.25 13.3429 1.25133 14.1993 1.36647C15.0377 1.47919 15.5207 1.69058 15.8734 2.04325C16.2261 2.39593 16.4375 2.87897 16.5502 3.71737C16.6653 4.57376 16.6667 5.70265 16.6667 7.29167C16.6667 8.88068 16.6653 10.0096 16.5502 10.866C16.4375 11.7044 16.2261 12.1874 15.8734 12.5401C15.5207 12.8928 15.0377 13.1041 14.1993 13.2169C13.3429 13.332 12.214 13.3333 10.625 13.3333H7.29167C5.70265 13.3333 4.57376 13.332 3.71737 13.2169C2.87897 13.1041 2.39593 12.8928 2.04325 12.5401C1.69058 12.1874 1.47919 11.7044 1.36647 10.866C1.25133 10.0096 1.25 8.88068 1.25 7.29167C1.25 5.70265 1.25133 4.57376 1.36647 3.71737C1.47919 2.87897 1.69058 2.39593 2.04325 2.04325Z" fill="#2C2D3A"/>
</svg>
