<svg width="80" height="68" viewBox="0 0 80 68" fill="none" xmlns="http://www.w3.org/2000/svg">
<rect x="19" width="42" height="42" rx="21" fill="#66D0FF"/>
<path d="M44.3679 25.1659L40.0047 20.4986M40.0047 20.4986L35.6415 25.1659M40.0047 20.4986V31M49.1566 27.9546C50.2205 27.3341 51.061 26.3524 51.5453 25.1643C52.0297 23.9761 52.1304 22.6493 51.8315 21.3932C51.5326 20.137 50.8511 19.0231 49.8947 18.2273C48.9383 17.4314 47.7613 16.9989 46.5496 16.9981H45.1751C44.845 15.632 44.2296 14.3638 43.3752 13.2887C42.5209 12.2137 41.4499 11.3598 40.2426 10.7913C39.0354 10.2228 37.7233 9.95438 36.4052 10.0063C35.087 10.0583 33.797 10.4292 32.6321 11.0912C31.4673 11.7532 30.4579 12.6891 29.6798 13.8285C28.9017 14.9679 28.3753 16.2811 28.14 17.6695C27.9047 19.0578 27.9667 20.4852 28.3213 21.8442C28.6759 23.2033 29.314 24.4586 30.1874 25.5159" stroke="#1E1E1E" stroke-width="2" stroke-linecap="round" stroke-linejoin="round"/>
<path d="M44.3679 25.1659L40.0047 20.4986M40.0047 20.4986L35.6415 25.1659M40.0047 20.4986V31M49.1566 27.9546C50.2205 27.3341 51.061 26.3524 51.5453 25.1643C52.0297 23.9761 52.1304 22.6493 51.8315 21.3932C51.5326 20.137 50.8511 19.0231 49.8947 18.2273C48.9383 17.4314 47.7613 16.9989 46.5496 16.9981H45.1751C44.845 15.632 44.2296 14.3638 43.3752 13.2887C42.5209 12.2137 41.4499 11.3598 40.2426 10.7913C39.0354 10.2228 37.7233 9.95438 36.4052 10.0063C35.087 10.0583 33.797 10.4292 32.6321 11.0912C31.4673 11.7532 30.4579 12.6891 29.6798 13.8285C28.9017 14.9679 28.3753 16.2811 28.14 17.6695C27.9047 19.0578 27.9667 20.4852 28.3213 21.8442C28.6759 23.2033 29.314 24.4586 30.1874 25.5159" stroke="white" stroke-width="2" stroke-linecap="round" stroke-linejoin="round"/>
<path d="M28.9512 63.834V65H24.4219V63.834H28.9512ZM24.8379 56.4688V65H23.3672V56.4688H24.8379ZM28.3594 60.0312V61.1797H24.4219V60.0312H28.3594ZM28.9219 56.4688V57.6406H24.4219V56.4688H28.9219ZM31.0898 58.6602L32.2969 60.7637L33.5273 58.6602H35.0801L33.1582 61.7715L35.1562 65H33.6035L32.3145 62.8086L31.0254 65H29.4668L31.459 61.7715L29.543 58.6602H31.0898ZM37.4648 59.8789V67.4375H36.0527V58.6602H37.3535L37.4648 59.8789ZM41.5957 61.7715V61.8945C41.5957 62.3555 41.541 62.7832 41.4316 63.1777C41.3262 63.5684 41.168 63.9102 40.957 64.2031C40.75 64.4922 40.4941 64.7168 40.1895 64.877C39.8848 65.0371 39.5332 65.1172 39.1348 65.1172C38.7402 65.1172 38.3945 65.0449 38.0977 64.9004C37.8047 64.752 37.5566 64.543 37.3535 64.2734C37.1504 64.0039 36.9863 63.6875 36.8613 63.3242C36.7402 62.957 36.6543 62.5547 36.6035 62.1172V61.6426C36.6543 61.1777 36.7402 60.7559 36.8613 60.377C36.9863 59.998 37.1504 59.6719 37.3535 59.3984C37.5566 59.125 37.8047 58.9141 38.0977 58.7656C38.3906 58.6172 38.7324 58.543 39.123 58.543C39.5215 58.543 39.875 58.6211 40.1836 58.7773C40.4922 58.9297 40.752 59.1484 40.9629 59.4336C41.1738 59.7148 41.332 60.0547 41.4375 60.4531C41.543 60.8477 41.5957 61.2871 41.5957 61.7715ZM40.1836 61.8945V61.7715C40.1836 61.4785 40.1562 61.207 40.1016 60.957C40.0469 60.7031 39.9609 60.4805 39.8438 60.2891C39.7266 60.0977 39.5762 59.9492 39.3926 59.8438C39.2129 59.7344 38.9961 59.6797 38.7422 59.6797C38.4922 59.6797 38.2773 59.7227 38.0977 59.8086C37.918 59.8906 37.7676 60.0059 37.6465 60.1543C37.5254 60.3027 37.4316 60.4766 37.3652 60.6758C37.2988 60.8711 37.252 61.084 37.2246 61.3145V62.4512C37.2715 62.7324 37.3516 62.9902 37.4648 63.2246C37.5781 63.459 37.7383 63.6465 37.9453 63.7871C38.1562 63.9238 38.4258 63.9922 38.7539 63.9922C39.0078 63.9922 39.2246 63.9375 39.4043 63.8281C39.584 63.7188 39.7305 63.5684 39.8438 63.377C39.9609 63.1816 40.0469 62.957 40.1016 62.7031C40.1562 62.4492 40.1836 62.1797 40.1836 61.8945ZM42.5273 61.9004V61.7656C42.5273 61.3086 42.5938 60.8848 42.7266 60.4941C42.8594 60.0996 43.0508 59.7578 43.3008 59.4688C43.5547 59.1758 43.8633 58.9492 44.2266 58.7891C44.5938 58.625 45.0078 58.543 45.4688 58.543C45.9336 58.543 46.3477 58.625 46.7109 58.7891C47.0781 58.9492 47.3887 59.1758 47.6426 59.4688C47.8965 59.7578 48.0898 60.0996 48.2227 60.4941C48.3555 60.8848 48.4219 61.3086 48.4219 61.7656V61.9004C48.4219 62.3574 48.3555 62.7812 48.2227 63.1719C48.0898 63.5625 47.8965 63.9043 47.6426 64.1973C47.3887 64.4863 47.0801 64.7129 46.7168 64.877C46.3535 65.0371 45.9414 65.1172 45.4805 65.1172C45.0156 65.1172 44.5996 65.0371 44.2324 64.877C43.8691 64.7129 43.5605 64.4863 43.3066 64.1973C43.0527 63.9043 42.8594 63.5625 42.7266 63.1719C42.5938 62.7812 42.5273 62.3574 42.5273 61.9004ZM43.9395 61.7656V61.9004C43.9395 62.1855 43.9688 62.4551 44.0273 62.709C44.0859 62.9629 44.1777 63.1855 44.3027 63.377C44.4277 63.5684 44.5879 63.7188 44.7832 63.8281C44.9785 63.9375 45.2109 63.9922 45.4805 63.9922C45.7422 63.9922 45.9688 63.9375 46.1602 63.8281C46.3555 63.7188 46.5156 63.5684 46.6406 63.377C46.7656 63.1855 46.8574 62.9629 46.916 62.709C46.9785 62.4551 47.0098 62.1855 47.0098 61.9004V61.7656C47.0098 61.4844 46.9785 61.2188 46.916 60.9688C46.8574 60.7148 46.7637 60.4902 46.6348 60.2949C46.5098 60.0996 46.3496 59.9473 46.1543 59.8379C45.9629 59.7246 45.7344 59.668 45.4688 59.668C45.2031 59.668 44.9727 59.7246 44.7773 59.8379C44.5859 59.9473 44.4277 60.0996 44.3027 60.2949C44.1777 60.4902 44.0859 60.7148 44.0273 60.9688C43.9688 61.2188 43.9395 61.4844 43.9395 61.7656ZM51.0234 59.8672V65H49.6113V58.6602H50.959L51.0234 59.8672ZM52.9629 58.6191L52.9512 59.9316C52.8652 59.916 52.7715 59.9043 52.6699 59.8965C52.5723 59.8887 52.4746 59.8848 52.377 59.8848C52.1348 59.8848 51.9219 59.9199 51.7383 59.9902C51.5547 60.0566 51.4004 60.1543 51.2754 60.2832C51.1543 60.4082 51.0605 60.5605 50.9941 60.7402C50.9277 60.9199 50.8887 61.1211 50.877 61.3438L50.5547 61.3672C50.5547 60.9688 50.5938 60.5996 50.6719 60.2598C50.75 59.9199 50.8672 59.6211 51.0234 59.3633C51.1836 59.1055 51.3828 58.9043 51.6211 58.7598C51.8633 58.6152 52.1426 58.543 52.459 58.543C52.5449 58.543 52.6367 58.5508 52.7344 58.5664C52.8359 58.582 52.9121 58.5996 52.9629 58.6191ZM57.0469 58.6602V59.6914H53.4727V58.6602H57.0469ZM54.5039 57.1074H55.916V63.248C55.916 63.4434 55.9434 63.5938 55.998 63.6992C56.0566 63.8008 56.1367 63.8691 56.2383 63.9043C56.3398 63.9395 56.459 63.957 56.5957 63.957C56.6934 63.957 56.7871 63.9512 56.877 63.9395C56.9668 63.9277 57.0391 63.916 57.0938 63.9043L57.0996 64.9824C56.9824 65.0176 56.8457 65.0488 56.6895 65.0762C56.5371 65.1035 56.3613 65.1172 56.1621 65.1172C55.8379 65.1172 55.5508 65.0605 55.3008 64.9473C55.0508 64.8301 54.8555 64.6406 54.7148 64.3789C54.5742 64.1172 54.5039 63.7695 54.5039 63.3359V57.1074Z" fill="#0D1217"/>
</svg>
