<svg width="80" height="68" viewBox="0 0 80 68" fill="none" xmlns="http://www.w3.org/2000/svg">
<rect x="19" width="42" height="42" rx="21" fill="#FFD233"/>
<path d="M46.5 16.6667C46.5 17.8633 45.53 18.8333 44.3334 18.8333C43.1367 18.8333 42.1667 17.8633 42.1667 16.6667C42.1667 15.4701 43.1367 14.5 44.3334 14.5C45.53 14.5 46.5 15.4701 46.5 16.6667Z" fill="white"/>
<path fill-rule="evenodd" clip-rule="evenodd" d="M39.9379 9.35417H40.0622C42.5629 9.35416 44.5227 9.35415 46.0518 9.55973C47.617 9.77016 48.852 10.2093 49.8214 11.1787C50.7907 12.148 51.2299 13.3831 51.4403 14.9482C51.6459 16.4773 51.6459 18.4371 51.6459 20.9379V21.0335C51.6459 23.1013 51.6459 24.7941 51.5336 26.1724C51.4207 27.5575 51.1894 28.7149 50.6718 29.6761C50.4435 30.1001 50.1629 30.4798 49.8214 30.8214C48.852 31.7907 47.617 32.2299 46.0518 32.4403C44.5227 32.6459 42.5629 32.6459 40.0622 32.6458H39.9379C37.4371 32.6459 35.4773 32.6459 33.9482 32.4403C32.3831 32.2299 31.148 31.7907 30.1787 30.8214C29.3193 29.962 28.8755 28.8923 28.6395 27.5655C28.4076 26.262 28.3652 24.6403 28.3564 22.6266C28.3542 22.1144 28.3542 21.5726 28.3542 21.0011V20.9378C28.3542 18.4371 28.3542 16.4773 28.5597 14.9482C28.7702 13.3831 29.2093 12.148 30.1787 11.1787C31.148 10.2093 32.3831 9.77016 33.9482 9.55973C35.4773 9.35415 37.4371 9.35416 39.9379 9.35417ZM34.1647 11.1702C32.7798 11.3564 31.9448 11.7106 31.3277 12.3277C30.7106 12.9448 30.3565 13.7798 30.1703 15.1647C29.9809 16.573 29.9792 18.4236 29.9792 21C29.9792 21.3147 29.9792 21.6191 29.9796 21.9138L31.0641 20.9648C32.0513 20.101 33.5392 20.1506 34.4668 21.0781L39.114 25.7253C39.8585 26.4698 41.0304 26.5713 41.8918 25.9659L42.2149 25.7389C43.4545 24.8677 45.1316 24.9687 46.2577 25.9822L49.324 28.7419C49.6327 28.0937 49.816 27.242 49.9139 26.0405C50.0202 24.7356 50.0209 23.108 50.0209 21C50.0209 18.4236 50.0191 16.573 49.8298 15.1647C49.6436 13.7798 49.2894 12.9448 48.6723 12.3277C48.0552 11.7106 47.2202 11.3564 45.8353 11.1702C44.427 10.9809 42.5764 10.9792 40 10.9792C37.4236 10.9792 35.573 10.9809 34.1647 11.1702Z" fill="white"/>
<path d="M28.418 60.6406V63.8984C28.2969 64.0586 28.1074 64.2344 27.8496 64.4258C27.5957 64.6133 27.2578 64.7754 26.8359 64.9121C26.4141 65.0488 25.8887 65.1172 25.2598 65.1172C24.7246 65.1172 24.2344 65.0273 23.7891 64.8477C23.3438 64.6641 22.959 64.3965 22.6348 64.0449C22.3145 63.6934 22.0664 63.2656 21.8906 62.7617C21.7148 62.2539 21.627 61.6758 21.627 61.0273V60.4355C21.627 59.791 21.707 59.2168 21.8672 58.7129C22.0312 58.2051 22.2656 57.7754 22.5703 57.4238C22.875 57.0723 23.2422 56.8066 23.6719 56.627C24.1055 56.4434 24.5957 56.3516 25.1426 56.3516C25.8418 56.3516 26.4199 56.4688 26.877 56.7031C27.3379 56.9336 27.6934 57.2539 27.9434 57.6641C28.1934 58.0742 28.3516 58.543 28.418 59.0703H26.9766C26.9297 58.7734 26.8379 58.5078 26.7012 58.2734C26.5684 58.0391 26.377 57.8555 26.127 57.7227C25.8809 57.5859 25.5605 57.5176 25.166 57.5176C24.8262 57.5176 24.5273 57.582 24.2695 57.7109C24.0117 57.8398 23.7969 58.0293 23.625 58.2793C23.457 58.5293 23.3301 58.834 23.2441 59.1934C23.1582 59.5527 23.1152 59.9629 23.1152 60.4238V61.0273C23.1152 61.4961 23.1641 61.9121 23.2617 62.2754C23.3633 62.6387 23.5078 62.9453 23.6953 63.1953C23.8867 63.4453 24.1191 63.6348 24.3926 63.7637C24.666 63.8887 24.9746 63.9512 25.3184 63.9512C25.6543 63.9512 25.9297 63.9238 26.1445 63.8691C26.3594 63.8105 26.5293 63.7422 26.6543 63.6641C26.7832 63.582 26.8828 63.5039 26.9531 63.4297V61.7363H25.1777V60.6406H28.418ZM33.4805 63.7285V60.7051C33.4805 60.4785 33.4395 60.2832 33.3574 60.1191C33.2754 59.9551 33.1504 59.8281 32.9824 59.7383C32.8184 59.6484 32.6113 59.6035 32.3613 59.6035C32.1309 59.6035 31.9316 59.6426 31.7637 59.7207C31.5957 59.7988 31.4648 59.9043 31.3711 60.0371C31.2773 60.1699 31.2305 60.3203 31.2305 60.4883H29.8242C29.8242 60.2383 29.8848 59.9961 30.0059 59.7617C30.127 59.5273 30.3027 59.3184 30.5332 59.1348C30.7637 58.9512 31.0391 58.8066 31.3594 58.7012C31.6797 58.5957 32.0391 58.543 32.4375 58.543C32.9141 58.543 33.3359 58.623 33.7031 58.7832C34.0742 58.9434 34.3652 59.1855 34.5762 59.5098C34.791 59.8301 34.8984 60.2324 34.8984 60.7168V63.5352C34.8984 63.8242 34.918 64.084 34.957 64.3145C35 64.541 35.0605 64.7383 35.1387 64.9062V65H33.6914C33.625 64.8477 33.5723 64.6543 33.5332 64.4199C33.498 64.1816 33.4805 63.9512 33.4805 63.7285ZM33.6855 61.1445L33.6973 62.0176H32.6836C32.4219 62.0176 32.1914 62.043 31.9922 62.0938C31.793 62.1406 31.627 62.2109 31.4941 62.3047C31.3613 62.3984 31.2617 62.5117 31.1953 62.6445C31.1289 62.7773 31.0957 62.9277 31.0957 63.0957C31.0957 63.2637 31.1348 63.418 31.2129 63.5586C31.291 63.6953 31.4043 63.8027 31.5527 63.8809C31.7051 63.959 31.8887 63.998 32.1035 63.998C32.3926 63.998 32.6445 63.9395 32.8594 63.8223C33.0781 63.7012 33.25 63.5547 33.375 63.3828C33.5 63.207 33.5664 63.041 33.5742 62.8848L34.0312 63.5117C33.9844 63.6719 33.9043 63.8438 33.791 64.0273C33.6777 64.2109 33.5293 64.3867 33.3457 64.5547C33.166 64.7188 32.9492 64.8535 32.6953 64.959C32.4453 65.0645 32.1562 65.1172 31.8281 65.1172C31.4141 65.1172 31.0449 65.0352 30.7207 64.8711C30.3965 64.7031 30.1426 64.4785 29.959 64.1973C29.7754 63.9121 29.6836 63.5898 29.6836 63.2305C29.6836 62.8945 29.7461 62.5977 29.8711 62.3398C30 62.0781 30.1875 61.8594 30.4336 61.6836C30.6836 61.5078 30.9883 61.375 31.3477 61.2852C31.707 61.1914 32.1172 61.1445 32.5781 61.1445H33.6855ZM37.8867 56V65H36.4688V56H37.8867ZM40.9453 56V65H39.5273V56H40.9453ZM45.2871 65.1172C44.8184 65.1172 44.3945 65.041 44.0156 64.8887C43.6406 64.7324 43.3203 64.5156 43.0547 64.2383C42.793 63.9609 42.5918 63.6348 42.4512 63.2598C42.3105 62.8848 42.2402 62.4805 42.2402 62.0469V61.8125C42.2402 61.3164 42.3125 60.8672 42.457 60.4648C42.6016 60.0625 42.8027 59.7188 43.0605 59.4336C43.3184 59.1445 43.623 58.9238 43.9746 58.7715C44.3262 58.6191 44.707 58.543 45.1172 58.543C45.5703 58.543 45.9668 58.6191 46.3066 58.7715C46.6465 58.9238 46.9277 59.1387 47.1504 59.416C47.377 59.6895 47.5449 60.0156 47.6543 60.3945C47.7676 60.7734 47.8242 61.1914 47.8242 61.6484V62.252H42.9258V61.2383H46.4297V61.127C46.4219 60.873 46.3711 60.6348 46.2773 60.4121C46.1875 60.1895 46.0488 60.0098 45.8613 59.873C45.6738 59.7363 45.4238 59.668 45.1113 59.668C44.877 59.668 44.668 59.7188 44.4844 59.8203C44.3047 59.918 44.1543 60.0605 44.0332 60.248C43.9121 60.4355 43.8184 60.6621 43.752 60.9277C43.6895 61.1895 43.6582 61.4844 43.6582 61.8125V62.0469C43.6582 62.3242 43.6953 62.582 43.7695 62.8203C43.8477 63.0547 43.9609 63.2598 44.1094 63.4355C44.2578 63.6113 44.4375 63.75 44.6484 63.8516C44.8594 63.9492 45.0996 63.998 45.3691 63.998C45.709 63.998 46.0117 63.9297 46.2773 63.793C46.543 63.6562 46.7734 63.4629 46.9688 63.2129L47.7129 63.9336C47.5762 64.1328 47.3984 64.3242 47.1797 64.5078C46.9609 64.6875 46.6934 64.834 46.377 64.9473C46.0645 65.0605 45.7012 65.1172 45.2871 65.1172ZM50.3438 59.8672V65H48.9316V58.6602H50.2793L50.3438 59.8672ZM52.2832 58.6191L52.2715 59.9316C52.1855 59.916 52.0918 59.9043 51.9902 59.8965C51.8926 59.8887 51.7949 59.8848 51.6973 59.8848C51.4551 59.8848 51.2422 59.9199 51.0586 59.9902C50.875 60.0566 50.7207 60.1543 50.5957 60.2832C50.4746 60.4082 50.3809 60.5605 50.3145 60.7402C50.248 60.9199 50.209 61.1211 50.1973 61.3438L49.875 61.3672C49.875 60.9688 49.9141 60.5996 49.9922 60.2598C50.0703 59.9199 50.1875 59.6211 50.3438 59.3633C50.5039 59.1055 50.7031 58.9043 50.9414 58.7598C51.1836 58.6152 51.4629 58.543 51.7793 58.543C51.8652 58.543 51.957 58.5508 52.0547 58.5664C52.1562 58.582 52.2324 58.5996 52.2832 58.6191ZM55.1133 64.3086L56.8359 58.6602H58.3477L55.8047 65.9668C55.7461 66.123 55.6699 66.293 55.5762 66.4766C55.4824 66.6602 55.3594 66.834 55.207 66.998C55.0586 67.166 54.873 67.3008 54.6504 67.4023C54.4277 67.5078 54.1582 67.5605 53.8418 67.5605C53.7168 67.5605 53.5957 67.5488 53.4785 67.5254C53.3652 67.5059 53.2578 67.4844 53.1562 67.4609L53.1504 66.3828C53.1895 66.3867 53.2363 66.3906 53.291 66.3945C53.3496 66.3984 53.3965 66.4004 53.4316 66.4004C53.666 66.4004 53.8613 66.3711 54.0176 66.3125C54.1738 66.2578 54.3008 66.168 54.3984 66.043C54.5 65.918 54.5859 65.75 54.6562 65.5391L55.1133 64.3086ZM54.1406 58.6602L55.6465 63.4062L55.8984 64.8945L54.9199 65.1465L52.6172 58.6602H54.1406Z" fill="#0D1217"/>
</svg>
