<svg width="98" height="68" viewBox="0 0 98 68" fill="none" xmlns="http://www.w3.org/2000/svg">
<rect x="28.1328" width="42" height="42" rx="21" fill="#4484CD"/>
<circle cx="49.1328" cy="14.5" r="4.33333" fill="white"/>
<path d="M57.7995 26.9583C57.7995 29.6507 57.7995 31.8333 49.1328 31.8333C40.4661 31.8333 40.4661 29.6507 40.4661 26.9583C40.4661 24.266 44.3463 22.0833 49.1328 22.0833C53.9193 22.0833 57.7995 24.266 57.7995 26.9583Z" fill="white"/>
<path d="M3.24023 61.8184H1.01953V60.6523H3.24023C3.62695 60.6523 3.93945 60.5898 4.17773 60.4648C4.41602 60.3398 4.58984 60.168 4.69922 59.9492C4.8125 59.7266 4.86914 59.4727 4.86914 59.1875C4.86914 58.918 4.8125 58.666 4.69922 58.4316C4.58984 58.1934 4.41602 58.002 4.17773 57.8574C3.93945 57.7129 3.62695 57.6406 3.24023 57.6406H1.4707V65H0V56.4688H3.24023C3.90039 56.4688 4.46094 56.5859 4.92188 56.8203C5.38672 57.0508 5.74023 57.3711 5.98242 57.7812C6.22461 58.1875 6.3457 58.6523 6.3457 59.1758C6.3457 59.7266 6.22461 60.1992 5.98242 60.5938C5.74023 60.9883 5.38672 61.291 4.92188 61.502C4.46094 61.7129 3.90039 61.8184 3.24023 61.8184ZM11.0273 63.7285V60.7051C11.0273 60.4785 10.9863 60.2832 10.9043 60.1191C10.8223 59.9551 10.6973 59.8281 10.5293 59.7383C10.3652 59.6484 10.1582 59.6035 9.9082 59.6035C9.67773 59.6035 9.47852 59.6426 9.31055 59.7207C9.14258 59.7988 9.01172 59.9043 8.91797 60.0371C8.82422 60.1699 8.77734 60.3203 8.77734 60.4883H7.37109C7.37109 60.2383 7.43164 59.9961 7.55273 59.7617C7.67383 59.5273 7.84961 59.3184 8.08008 59.1348C8.31055 58.9512 8.58594 58.8066 8.90625 58.7012C9.22656 58.5957 9.58594 58.543 9.98438 58.543C10.4609 58.543 10.8828 58.623 11.25 58.7832C11.6211 58.9434 11.9121 59.1855 12.123 59.5098C12.3379 59.8301 12.4453 60.2324 12.4453 60.7168V63.5352C12.4453 63.8242 12.4648 64.084 12.5039 64.3145C12.5469 64.541 12.6074 64.7383 12.6855 64.9062V65H11.2383C11.1719 64.8477 11.1191 64.6543 11.0801 64.4199C11.0449 64.1816 11.0273 63.9512 11.0273 63.7285ZM11.2324 61.1445L11.2441 62.0176H10.2305C9.96875 62.0176 9.73828 62.043 9.53906 62.0938C9.33984 62.1406 9.17383 62.2109 9.04102 62.3047C8.9082 62.3984 8.80859 62.5117 8.74219 62.6445C8.67578 62.7773 8.64258 62.9277 8.64258 63.0957C8.64258 63.2637 8.68164 63.418 8.75977 63.5586C8.83789 63.6953 8.95117 63.8027 9.09961 63.8809C9.25195 63.959 9.43555 63.998 9.65039 63.998C9.93945 63.998 10.1914 63.9395 10.4062 63.8223C10.625 63.7012 10.7969 63.5547 10.9219 63.3828C11.0469 63.207 11.1133 63.041 11.1211 62.8848L11.5781 63.5117C11.5312 63.6719 11.4512 63.8438 11.3379 64.0273C11.2246 64.2109 11.0762 64.3867 10.8926 64.5547C10.7129 64.7188 10.4961 64.8535 10.2422 64.959C9.99219 65.0645 9.70312 65.1172 9.375 65.1172C8.96094 65.1172 8.5918 65.0352 8.26758 64.8711C7.94336 64.7031 7.68945 64.4785 7.50586 64.1973C7.32227 63.9121 7.23047 63.5898 7.23047 63.2305C7.23047 62.8945 7.29297 62.5977 7.41797 62.3398C7.54688 62.0781 7.73438 61.8594 7.98047 61.6836C8.23047 61.5078 8.53516 61.375 8.89453 61.2852C9.25391 61.1914 9.66406 61.1445 10.125 61.1445H11.2324ZM15.3398 59.8672V65H13.9277V58.6602H15.2754L15.3398 59.8672ZM17.2793 58.6191L17.2676 59.9316C17.1816 59.916 17.0879 59.9043 16.9863 59.8965C16.8887 59.8887 16.791 59.8848 16.6934 59.8848C16.4512 59.8848 16.2383 59.9199 16.0547 59.9902C15.8711 60.0566 15.7168 60.1543 15.5918 60.2832C15.4707 60.4082 15.377 60.5605 15.3105 60.7402C15.2441 60.9199 15.2051 61.1211 15.1934 61.3438L14.8711 61.3672C14.8711 60.9688 14.9102 60.5996 14.9883 60.2598C15.0664 59.9199 15.1836 59.6211 15.3398 59.3633C15.5 59.1055 15.6992 58.9043 15.9375 58.7598C16.1797 58.6152 16.459 58.543 16.7754 58.543C16.8613 58.543 16.9531 58.5508 17.0508 58.5664C17.1523 58.582 17.2285 58.5996 17.2793 58.6191ZM21.3633 58.6602V59.6914H17.7891V58.6602H21.3633ZM18.8203 57.1074H20.2324V63.248C20.2324 63.4434 20.2598 63.5938 20.3145 63.6992C20.373 63.8008 20.4531 63.8691 20.5547 63.9043C20.6562 63.9395 20.7754 63.957 20.9121 63.957C21.0098 63.957 21.1035 63.9512 21.1934 63.9395C21.2832 63.9277 21.3555 63.916 21.4102 63.9043L21.416 64.9824C21.2988 65.0176 21.1621 65.0488 21.0059 65.0762C20.8535 65.1035 20.6777 65.1172 20.4785 65.1172C20.1543 65.1172 19.8672 65.0605 19.6172 64.9473C19.3672 64.8301 19.1719 64.6406 19.0312 64.3789C18.8906 64.1172 18.8203 63.7695 18.8203 63.3359V57.1074ZM23.9648 58.6602V65H22.5469V58.6602H23.9648ZM22.4531 56.9961C22.4531 56.7812 22.5234 56.6035 22.6641 56.4629C22.8086 56.3184 23.0078 56.2461 23.2617 56.2461C23.5117 56.2461 23.709 56.3184 23.8535 56.4629C23.998 56.6035 24.0703 56.7812 24.0703 56.9961C24.0703 57.207 23.998 57.3828 23.8535 57.5234C23.709 57.6641 23.5117 57.7344 23.2617 57.7344C23.0078 57.7344 22.8086 57.6641 22.6641 57.5234C22.5234 57.3828 22.4531 57.207 22.4531 56.9961ZM28.1016 63.9922C28.332 63.9922 28.5391 63.9473 28.7227 63.8574C28.9102 63.7637 29.0605 63.6348 29.1738 63.4707C29.291 63.3066 29.3555 63.1172 29.3672 62.9023H30.6973C30.6895 63.3125 30.5684 63.6855 30.334 64.0215C30.0996 64.3574 29.7891 64.625 29.4023 64.8242C29.0156 65.0195 28.5879 65.1172 28.1191 65.1172C27.6348 65.1172 27.2129 65.0352 26.8535 64.8711C26.4941 64.7031 26.1953 64.4727 25.957 64.1797C25.7188 63.8867 25.5391 63.5488 25.418 63.166C25.3008 62.7832 25.2422 62.373 25.2422 61.9355V61.7305C25.2422 61.293 25.3008 60.8828 25.418 60.5C25.5391 60.1133 25.7188 59.7734 25.957 59.4805C26.1953 59.1875 26.4941 58.959 26.8535 58.7949C27.2129 58.627 27.6328 58.543 28.1133 58.543C28.6211 58.543 29.0664 58.6445 29.4492 58.8477C29.832 59.0469 30.1328 59.3262 30.3516 59.6855C30.5742 60.041 30.6895 60.4551 30.6973 60.9277H29.3672C29.3555 60.6934 29.2969 60.4824 29.1914 60.2949C29.0898 60.1035 28.9453 59.9512 28.7578 59.8379C28.5742 59.7246 28.3535 59.668 28.0957 59.668C27.8105 59.668 27.5742 59.7266 27.3867 59.8438C27.1992 59.957 27.0527 60.1133 26.9473 60.3125C26.8418 60.5078 26.7656 60.7285 26.7188 60.9746C26.6758 61.2168 26.6543 61.4688 26.6543 61.7305V61.9355C26.6543 62.1973 26.6758 62.4512 26.7188 62.6973C26.7617 62.9434 26.8359 63.1641 26.9414 63.3594C27.0508 63.5508 27.1992 63.7051 27.3867 63.8223C27.5742 63.9355 27.8125 63.9922 28.1016 63.9922ZM33.293 58.6602V65H31.875V58.6602H33.293ZM31.7812 56.9961C31.7812 56.7812 31.8516 56.6035 31.9922 56.4629C32.1367 56.3184 32.3359 56.2461 32.5898 56.2461C32.8398 56.2461 33.0371 56.3184 33.1816 56.4629C33.3262 56.6035 33.3984 56.7812 33.3984 56.9961C33.3984 57.207 33.3262 57.3828 33.1816 57.5234C33.0371 57.6641 32.8398 57.7344 32.5898 57.7344C32.3359 57.7344 32.1367 57.6641 31.9922 57.5234C31.8516 57.3828 31.7812 57.207 31.7812 56.9961ZM36.2578 59.8789V67.4375H34.8457V58.6602H36.1465L36.2578 59.8789ZM40.3887 61.7715V61.8945C40.3887 62.3555 40.334 62.7832 40.2246 63.1777C40.1191 63.5684 39.9609 63.9102 39.75 64.2031C39.543 64.4922 39.2871 64.7168 38.9824 64.877C38.6777 65.0371 38.3262 65.1172 37.9277 65.1172C37.5332 65.1172 37.1875 65.0449 36.8906 64.9004C36.5977 64.752 36.3496 64.543 36.1465 64.2734C35.9434 64.0039 35.7793 63.6875 35.6543 63.3242C35.5332 62.957 35.4473 62.5547 35.3965 62.1172V61.6426C35.4473 61.1777 35.5332 60.7559 35.6543 60.377C35.7793 59.998 35.9434 59.6719 36.1465 59.3984C36.3496 59.125 36.5977 58.9141 36.8906 58.7656C37.1836 58.6172 37.5254 58.543 37.916 58.543C38.3145 58.543 38.668 58.6211 38.9766 58.7773C39.2852 58.9297 39.5449 59.1484 39.7559 59.4336C39.9668 59.7148 40.125 60.0547 40.2305 60.4531C40.3359 60.8477 40.3887 61.2871 40.3887 61.7715ZM38.9766 61.8945V61.7715C38.9766 61.4785 38.9492 61.207 38.8945 60.957C38.8398 60.7031 38.7539 60.4805 38.6367 60.2891C38.5195 60.0977 38.3691 59.9492 38.1855 59.8438C38.0059 59.7344 37.7891 59.6797 37.5352 59.6797C37.2852 59.6797 37.0703 59.7227 36.8906 59.8086C36.7109 59.8906 36.5605 60.0059 36.4395 60.1543C36.3184 60.3027 36.2246 60.4766 36.1582 60.6758C36.0918 60.8711 36.0449 61.084 36.0176 61.3145V62.4512C36.0645 62.7324 36.1445 62.9902 36.2578 63.2246C36.3711 63.459 36.5312 63.6465 36.7383 63.7871C36.9492 63.9238 37.2188 63.9922 37.5469 63.9922C37.8008 63.9922 38.0176 63.9375 38.1973 63.8281C38.377 63.7188 38.5234 63.5684 38.6367 63.377C38.7539 63.1816 38.8398 62.957 38.8945 62.7031C38.9492 62.4492 38.9766 62.1797 38.9766 61.8945ZM45.1641 63.7285V60.7051C45.1641 60.4785 45.123 60.2832 45.041 60.1191C44.959 59.9551 44.834 59.8281 44.666 59.7383C44.502 59.6484 44.2949 59.6035 44.0449 59.6035C43.8145 59.6035 43.6152 59.6426 43.4473 59.7207C43.2793 59.7988 43.1484 59.9043 43.0547 60.0371C42.9609 60.1699 42.9141 60.3203 42.9141 60.4883H41.5078C41.5078 60.2383 41.5684 59.9961 41.6895 59.7617C41.8105 59.5273 41.9863 59.3184 42.2168 59.1348C42.4473 58.9512 42.7227 58.8066 43.043 58.7012C43.3633 58.5957 43.7227 58.543 44.1211 58.543C44.5977 58.543 45.0195 58.623 45.3867 58.7832C45.7578 58.9434 46.0488 59.1855 46.2598 59.5098C46.4746 59.8301 46.582 60.2324 46.582 60.7168V63.5352C46.582 63.8242 46.6016 64.084 46.6406 64.3145C46.6836 64.541 46.7441 64.7383 46.8223 64.9062V65H45.375C45.3086 64.8477 45.2559 64.6543 45.2168 64.4199C45.1816 64.1816 45.1641 63.9512 45.1641 63.7285ZM45.3691 61.1445L45.3809 62.0176H44.3672C44.1055 62.0176 43.875 62.043 43.6758 62.0938C43.4766 62.1406 43.3105 62.2109 43.1777 62.3047C43.0449 62.3984 42.9453 62.5117 42.8789 62.6445C42.8125 62.7773 42.7793 62.9277 42.7793 63.0957C42.7793 63.2637 42.8184 63.418 42.8965 63.5586C42.9746 63.6953 43.0879 63.8027 43.2363 63.8809C43.3887 63.959 43.5723 63.998 43.7871 63.998C44.0762 63.998 44.3281 63.9395 44.543 63.8223C44.7617 63.7012 44.9336 63.5547 45.0586 63.3828C45.1836 63.207 45.25 63.041 45.2578 62.8848L45.7148 63.5117C45.668 63.6719 45.5879 63.8438 45.4746 64.0273C45.3613 64.2109 45.2129 64.3867 45.0293 64.5547C44.8496 64.7188 44.6328 64.8535 44.3789 64.959C44.1289 65.0645 43.8398 65.1172 43.5117 65.1172C43.0977 65.1172 42.7285 65.0352 42.4043 64.8711C42.0801 64.7031 41.8262 64.4785 41.6426 64.1973C41.459 63.9121 41.3672 63.5898 41.3672 63.2305C41.3672 62.8945 41.4297 62.5977 41.5547 62.3398C41.6836 62.0781 41.8711 61.8594 42.1172 61.6836C42.3672 61.5078 42.6719 61.375 43.0312 61.2852C43.3906 61.1914 43.8008 61.1445 44.2617 61.1445H45.3691ZM49.459 60.0137V65H48.0469V58.6602H49.377L49.459 60.0137ZM49.207 61.5957L48.75 61.5898C48.7539 61.1406 48.8164 60.7285 48.9375 60.3535C49.0625 59.9785 49.2344 59.6562 49.4531 59.3867C49.6758 59.1172 49.9414 58.9102 50.25 58.7656C50.5586 58.6172 50.9023 58.543 51.2812 58.543C51.5859 58.543 51.8613 58.5859 52.1074 58.6719C52.3574 58.7539 52.5703 58.8887 52.7461 59.0762C52.9258 59.2637 53.0625 59.5078 53.1562 59.8086C53.25 60.1055 53.2969 60.4707 53.2969 60.9043V65H51.8789V60.8984C51.8789 60.5938 51.834 60.3535 51.7441 60.1777C51.6582 59.998 51.5312 59.8711 51.3633 59.7969C51.1992 59.7188 50.9941 59.6797 50.748 59.6797C50.5059 59.6797 50.2891 59.7305 50.0977 59.832C49.9062 59.9336 49.7441 60.0723 49.6113 60.248C49.4824 60.4238 49.3828 60.627 49.3125 60.8574C49.2422 61.0879 49.207 61.334 49.207 61.5957ZM57.6445 58.6602V59.6914H54.0703V58.6602H57.6445ZM55.1016 57.1074H56.5137V63.248C56.5137 63.4434 56.541 63.5938 56.5957 63.6992C56.6543 63.8008 56.7344 63.8691 56.8359 63.9043C56.9375 63.9395 57.0566 63.957 57.1934 63.957C57.291 63.957 57.3848 63.9512 57.4746 63.9395C57.5645 63.9277 57.6367 63.916 57.6914 63.9043L57.6973 64.9824C57.5801 65.0176 57.4434 65.0488 57.2871 65.0762C57.1348 65.1035 56.959 65.1172 56.7598 65.1172C56.4355 65.1172 56.1484 65.0605 55.8984 64.9473C55.6484 64.8301 55.4531 64.6406 55.3125 64.3789C55.1719 64.1172 55.1016 63.7695 55.1016 63.3359V57.1074ZM65.2793 63.2832C65.2793 63.1426 65.2441 63.0156 65.1738 62.9023C65.1035 62.7852 64.9688 62.6797 64.7695 62.5859C64.5742 62.4922 64.2852 62.4062 63.9023 62.3281C63.5664 62.2539 63.2578 62.166 62.9766 62.0645C62.6992 61.959 62.4609 61.832 62.2617 61.6836C62.0625 61.5352 61.9082 61.3594 61.7988 61.1562C61.6895 60.9531 61.6348 60.7188 61.6348 60.4531C61.6348 60.1953 61.6914 59.9512 61.8047 59.7207C61.918 59.4902 62.0801 59.2871 62.291 59.1113C62.502 58.9355 62.7578 58.7969 63.0586 58.6953C63.3633 58.5938 63.7031 58.543 64.0781 58.543C64.6094 58.543 65.0645 58.6328 65.4434 58.8125C65.8262 58.9883 66.1191 59.2285 66.3223 59.5332C66.5254 59.834 66.627 60.1738 66.627 60.5527H65.2148C65.2148 60.3848 65.1719 60.2285 65.0859 60.084C65.0039 59.9355 64.8789 59.8164 64.7109 59.7266C64.543 59.6328 64.332 59.5859 64.0781 59.5859C63.8359 59.5859 63.6348 59.625 63.4746 59.7031C63.3184 59.7773 63.2012 59.875 63.123 59.9961C63.0488 60.1172 63.0117 60.25 63.0117 60.3945C63.0117 60.5 63.0312 60.5957 63.0703 60.6816C63.1133 60.7637 63.1836 60.8398 63.2812 60.9102C63.3789 60.9766 63.5117 61.0391 63.6797 61.0977C63.8516 61.1562 64.0664 61.2129 64.3242 61.2676C64.8086 61.3691 65.2246 61.5 65.5723 61.6602C65.9238 61.8164 66.1934 62.0195 66.3809 62.2695C66.5684 62.5156 66.6621 62.8281 66.6621 63.207C66.6621 63.4883 66.6016 63.7461 66.4805 63.9805C66.3633 64.2109 66.1914 64.4121 65.9648 64.584C65.7383 64.752 65.4668 64.8828 65.1504 64.9766C64.8379 65.0703 64.4863 65.1172 64.0957 65.1172C63.5215 65.1172 63.0352 65.0156 62.6367 64.8125C62.2383 64.6055 61.9355 64.3418 61.7285 64.0215C61.5254 63.6973 61.4238 63.3613 61.4238 63.0137H62.7891C62.8047 63.2754 62.877 63.4844 63.0059 63.6406C63.1387 63.793 63.3027 63.9043 63.498 63.9746C63.6973 64.041 63.9023 64.0742 64.1133 64.0742C64.3672 64.0742 64.5801 64.041 64.752 63.9746C64.9238 63.9043 65.0547 63.8105 65.1445 63.6934C65.2344 63.5723 65.2793 63.4355 65.2793 63.2832ZM70.6934 65.1172C70.2246 65.1172 69.8008 65.041 69.4219 64.8887C69.0469 64.7324 68.7266 64.5156 68.4609 64.2383C68.1992 63.9609 67.998 63.6348 67.8574 63.2598C67.7168 62.8848 67.6465 62.4805 67.6465 62.0469V61.8125C67.6465 61.3164 67.7188 60.8672 67.8633 60.4648C68.0078 60.0625 68.209 59.7188 68.4668 59.4336C68.7246 59.1445 69.0293 58.9238 69.3809 58.7715C69.7324 58.6191 70.1133 58.543 70.5234 58.543C70.9766 58.543 71.373 58.6191 71.7129 58.7715C72.0527 58.9238 72.334 59.1387 72.5566 59.416C72.7832 59.6895 72.9512 60.0156 73.0605 60.3945C73.1738 60.7734 73.2305 61.1914 73.2305 61.6484V62.252H68.332V61.2383H71.8359V61.127C71.8281 60.873 71.7773 60.6348 71.6836 60.4121C71.5938 60.1895 71.4551 60.0098 71.2676 59.873C71.0801 59.7363 70.8301 59.668 70.5176 59.668C70.2832 59.668 70.0742 59.7188 69.8906 59.8203C69.7109 59.918 69.5605 60.0605 69.4395 60.248C69.3184 60.4355 69.2246 60.6621 69.1582 60.9277C69.0957 61.1895 69.0645 61.4844 69.0645 61.8125V62.0469C69.0645 62.3242 69.1016 62.582 69.1758 62.8203C69.2539 63.0547 69.3672 63.2598 69.5156 63.4355C69.6641 63.6113 69.8438 63.75 70.0547 63.8516C70.2656 63.9492 70.5059 63.998 70.7754 63.998C71.1152 63.998 71.418 63.9297 71.6836 63.793C71.9492 63.6562 72.1797 63.4629 72.375 63.2129L73.1191 63.9336C72.9824 64.1328 72.8047 64.3242 72.5859 64.5078C72.3672 64.6875 72.0996 64.834 71.7832 64.9473C71.4707 65.0605 71.1074 65.1172 70.6934 65.1172ZM77.2383 58.6602V59.6914H73.6641V58.6602H77.2383ZM74.6953 57.1074H76.1074V63.248C76.1074 63.4434 76.1348 63.5938 76.1895 63.6992C76.248 63.8008 76.3281 63.8691 76.4297 63.9043C76.5312 63.9395 76.6504 63.957 76.7871 63.957C76.8848 63.957 76.9785 63.9512 77.0684 63.9395C77.1582 63.9277 77.2305 63.916 77.2852 63.9043L77.291 64.9824C77.1738 65.0176 77.0371 65.0488 76.8809 65.0762C76.7285 65.1035 76.5527 65.1172 76.3535 65.1172C76.0293 65.1172 75.7422 65.0605 75.4922 64.9473C75.2422 64.8301 75.0469 64.6406 74.9062 64.3789C74.7656 64.1172 74.6953 63.7695 74.6953 63.3359V57.1074ZM81.2344 58.6602V59.6914H77.6602V58.6602H81.2344ZM78.6914 57.1074H80.1035V63.248C80.1035 63.4434 80.1309 63.5938 80.1855 63.6992C80.2441 63.8008 80.3242 63.8691 80.4258 63.9043C80.5273 63.9395 80.6465 63.957 80.7832 63.957C80.8809 63.957 80.9746 63.9512 81.0645 63.9395C81.1543 63.9277 81.2266 63.916 81.2812 63.9043L81.2871 64.9824C81.1699 65.0176 81.0332 65.0488 80.877 65.0762C80.7246 65.1035 80.5488 65.1172 80.3496 65.1172C80.0254 65.1172 79.7383 65.0605 79.4883 64.9473C79.2383 64.8301 79.043 64.6406 78.9023 64.3789C78.7617 64.1172 78.6914 63.7695 78.6914 63.3359V57.1074ZM83.8359 58.6602V65H82.418V58.6602H83.8359ZM82.3242 56.9961C82.3242 56.7812 82.3945 56.6035 82.5352 56.4629C82.6797 56.3184 82.8789 56.2461 83.1328 56.2461C83.3828 56.2461 83.5801 56.3184 83.7246 56.4629C83.8691 56.6035 83.9414 56.7812 83.9414 56.9961C83.9414 57.207 83.8691 57.3828 83.7246 57.5234C83.5801 57.6641 83.3828 57.7344 83.1328 57.7344C82.8789 57.7344 82.6797 57.6641 82.5352 57.5234C82.3945 57.3828 82.3242 57.207 82.3242 56.9961ZM86.7832 60.0137V65H85.3711V58.6602H86.7012L86.7832 60.0137ZM86.5312 61.5957L86.0742 61.5898C86.0781 61.1406 86.1406 60.7285 86.2617 60.3535C86.3867 59.9785 86.5586 59.6562 86.7773 59.3867C87 59.1172 87.2656 58.9102 87.5742 58.7656C87.8828 58.6172 88.2266 58.543 88.6055 58.543C88.9102 58.543 89.1855 58.5859 89.4316 58.6719C89.6816 58.7539 89.8945 58.8887 90.0703 59.0762C90.25 59.2637 90.3867 59.5078 90.4805 59.8086C90.5742 60.1055 90.6211 60.4707 90.6211 60.9043V65H89.2031V60.8984C89.2031 60.5938 89.1582 60.3535 89.0684 60.1777C88.9824 59.998 88.8555 59.8711 88.6875 59.7969C88.5234 59.7188 88.3184 59.6797 88.0723 59.6797C87.8301 59.6797 87.6133 59.7305 87.4219 59.832C87.2305 59.9336 87.0684 60.0723 86.9355 60.248C86.8066 60.4238 86.707 60.627 86.6367 60.8574C86.5664 61.0879 86.5312 61.334 86.5312 61.5957ZM96.123 58.6602H97.4062V64.8242C97.4062 65.3945 97.2852 65.8789 97.043 66.2773C96.8008 66.6758 96.4629 66.9785 96.0293 67.1855C95.5957 67.3965 95.0938 67.502 94.5234 67.502C94.2812 67.502 94.0117 67.4668 93.7148 67.3965C93.4219 67.3262 93.1367 67.2129 92.8594 67.0566C92.5859 66.9043 92.3574 66.7031 92.1738 66.4531L92.8359 65.6211C93.0625 65.8906 93.3125 66.0879 93.5859 66.2129C93.8594 66.3379 94.1465 66.4004 94.4473 66.4004C94.7715 66.4004 95.0469 66.3398 95.2734 66.2188C95.5039 66.1016 95.6816 65.9277 95.8066 65.6973C95.9316 65.4668 95.9941 65.1855 95.9941 64.8535V60.0957L96.123 58.6602ZM91.8164 61.9004V61.7773C91.8164 61.2969 91.875 60.8594 91.9922 60.4648C92.1094 60.0664 92.2773 59.7246 92.4961 59.4395C92.7148 59.1504 92.9805 58.9297 93.293 58.7773C93.6055 58.6211 93.959 58.543 94.3535 58.543C94.7637 58.543 95.1133 58.6172 95.4023 58.7656C95.6953 58.9141 95.9395 59.127 96.1348 59.4043C96.3301 59.6777 96.4824 60.0059 96.5918 60.3887C96.7051 60.7676 96.7891 61.1895 96.8438 61.6543V62.0469C96.793 62.5 96.707 62.9141 96.5859 63.2891C96.4648 63.6641 96.3047 63.9883 96.1055 64.2617C95.9062 64.5352 95.6602 64.7461 95.3672 64.8945C95.0781 65.043 94.7363 65.1172 94.3418 65.1172C93.9551 65.1172 93.6055 65.0371 93.293 64.877C92.9844 64.7168 92.7188 64.4922 92.4961 64.2031C92.2773 63.9141 92.1094 63.5742 91.9922 63.1836C91.875 62.7891 91.8164 62.3613 91.8164 61.9004ZM93.2285 61.7773V61.9004C93.2285 62.1895 93.2559 62.459 93.3105 62.709C93.3691 62.959 93.457 63.1797 93.5742 63.3711C93.6953 63.5586 93.8477 63.707 94.0312 63.8164C94.2188 63.9219 94.4395 63.9746 94.6934 63.9746C95.0254 63.9746 95.2969 63.9043 95.5078 63.7637C95.7227 63.623 95.8867 63.4336 96 63.1953C96.1172 62.9531 96.1992 62.6836 96.2461 62.3867V61.3262C96.2227 61.0957 96.1738 60.8809 96.0996 60.6816C96.0293 60.4824 95.9336 60.3086 95.8125 60.1602C95.6914 60.0078 95.5391 59.8906 95.3555 59.8086C95.1719 59.7227 94.9551 59.6797 94.7051 59.6797C94.4512 59.6797 94.2305 59.7344 94.043 59.8438C93.8555 59.9531 93.7012 60.1035 93.5801 60.2949C93.4629 60.4863 93.375 60.709 93.3164 60.9629C93.2578 61.2168 93.2285 61.4883 93.2285 61.7773Z" fill="#0D1217"/>
</svg>
