<svg width="80" height="68" viewBox="0 0 80 68" fill="none" xmlns="http://www.w3.org/2000/svg">
<rect x="19" width="42" height="42" rx="21" fill="#33D375"/>
<path d="M34 11L49.1667 20.75L34 30.5V11Z" stroke="#1E1E1E" stroke-width="2" stroke-linecap="round" stroke-linejoin="round"/>
<path d="M34 11L49.1667 20.75L34 30.5V11Z" stroke="white" stroke-width="2" stroke-linecap="round" stroke-linejoin="round"/>
<path d="M21.3672 56.4688H24.3848C25.0332 56.4688 25.5859 56.5664 26.043 56.7617C26.5 56.957 26.8496 57.2461 27.0918 57.6289C27.3379 58.0078 27.4609 58.4766 27.4609 59.0352C27.4609 59.4609 27.3828 59.8359 27.2266 60.1602C27.0703 60.4844 26.8496 60.7578 26.5645 60.9805C26.2793 61.1992 25.9395 61.3691 25.5449 61.4902L25.0996 61.707H22.3867L22.375 60.541H24.4082C24.7598 60.541 25.0527 60.4785 25.2871 60.3535C25.5215 60.2285 25.6973 60.0586 25.8145 59.8438C25.9355 59.625 25.9961 59.3789 25.9961 59.1055C25.9961 58.8086 25.9375 58.5508 25.8203 58.332C25.707 58.1094 25.5312 57.9395 25.293 57.8223C25.0547 57.7012 24.752 57.6406 24.3848 57.6406H22.8379V65H21.3672V56.4688ZM26.2363 65L24.2324 61.168L25.7734 61.1621L27.8066 64.9238V65H26.2363ZM31.5801 65.1172C31.1113 65.1172 30.6875 65.041 30.3086 64.8887C29.9336 64.7324 29.6133 64.5156 29.3477 64.2383C29.0859 63.9609 28.8848 63.6348 28.7441 63.2598C28.6035 62.8848 28.5332 62.4805 28.5332 62.0469V61.8125C28.5332 61.3164 28.6055 60.8672 28.75 60.4648C28.8945 60.0625 29.0957 59.7188 29.3535 59.4336C29.6113 59.1445 29.916 58.9238 30.2676 58.7715C30.6191 58.6191 31 58.543 31.4102 58.543C31.8633 58.543 32.2598 58.6191 32.5996 58.7715C32.9395 58.9238 33.2207 59.1387 33.4434 59.416C33.6699 59.6895 33.8379 60.0156 33.9473 60.3945C34.0605 60.7734 34.1172 61.1914 34.1172 61.6484V62.252H29.2188V61.2383H32.7227V61.127C32.7148 60.873 32.6641 60.6348 32.5703 60.4121C32.4805 60.1895 32.3418 60.0098 32.1543 59.873C31.9668 59.7363 31.7168 59.668 31.4043 59.668C31.1699 59.668 30.9609 59.7188 30.7773 59.8203C30.5977 59.918 30.4473 60.0605 30.3262 60.248C30.2051 60.4355 30.1113 60.6621 30.0449 60.9277C29.9824 61.1895 29.9512 61.4844 29.9512 61.8125V62.0469C29.9512 62.3242 29.9883 62.582 30.0625 62.8203C30.1406 63.0547 30.2539 63.2598 30.4023 63.4355C30.5508 63.6113 30.7305 63.75 30.9414 63.8516C31.1523 63.9492 31.3926 63.998 31.6621 63.998C32.002 63.998 32.3047 63.9297 32.5703 63.793C32.8359 63.6562 33.0664 63.4629 33.2617 63.2129L34.0059 63.9336C33.8691 64.1328 33.6914 64.3242 33.4727 64.5078C33.2539 64.6875 32.9863 64.834 32.6699 64.9473C32.3574 65.0605 31.9941 65.1172 31.5801 65.1172ZM37.1992 63.8809L38.752 58.6602H40.2168L38.0137 65H37.0996L37.1992 63.8809ZM36.0098 58.6602L37.5918 63.9043L37.668 65H36.7539L34.5391 58.6602H36.0098ZM42.6016 58.6602V65H41.1836V58.6602H42.6016ZM41.0898 56.9961C41.0898 56.7812 41.1602 56.6035 41.3008 56.4629C41.4453 56.3184 41.6445 56.2461 41.8984 56.2461C42.1484 56.2461 42.3457 56.3184 42.4902 56.4629C42.6348 56.6035 42.707 56.7812 42.707 56.9961C42.707 57.207 42.6348 57.3828 42.4902 57.5234C42.3457 57.6641 42.1484 57.7344 41.8984 57.7344C41.6445 57.7344 41.4453 57.6641 41.3008 57.5234C41.1602 57.3828 41.0898 57.207 41.0898 56.9961ZM46.9434 65.1172C46.4746 65.1172 46.0508 65.041 45.6719 64.8887C45.2969 64.7324 44.9766 64.5156 44.7109 64.2383C44.4492 63.9609 44.248 63.6348 44.1074 63.2598C43.9668 62.8848 43.8965 62.4805 43.8965 62.0469V61.8125C43.8965 61.3164 43.9688 60.8672 44.1133 60.4648C44.2578 60.0625 44.459 59.7188 44.7168 59.4336C44.9746 59.1445 45.2793 58.9238 45.6309 58.7715C45.9824 58.6191 46.3633 58.543 46.7734 58.543C47.2266 58.543 47.623 58.6191 47.9629 58.7715C48.3027 58.9238 48.584 59.1387 48.8066 59.416C49.0332 59.6895 49.2012 60.0156 49.3105 60.3945C49.4238 60.7734 49.4805 61.1914 49.4805 61.6484V62.252H44.582V61.2383H48.0859V61.127C48.0781 60.873 48.0273 60.6348 47.9336 60.4121C47.8438 60.1895 47.7051 60.0098 47.5176 59.873C47.3301 59.7363 47.0801 59.668 46.7676 59.668C46.5332 59.668 46.3242 59.7188 46.1406 59.8203C45.9609 59.918 45.8105 60.0605 45.6895 60.248C45.5684 60.4355 45.4746 60.6621 45.4082 60.9277C45.3457 61.1895 45.3145 61.4844 45.3145 61.8125V62.0469C45.3145 62.3242 45.3516 62.582 45.4258 62.8203C45.5039 63.0547 45.6172 63.2598 45.7656 63.4355C45.9141 63.6113 46.0938 63.75 46.3047 63.8516C46.5156 63.9492 46.7559 63.998 47.0254 63.998C47.3652 63.998 47.668 63.9297 47.9336 63.793C48.1992 63.6562 48.4297 63.4629 48.625 63.2129L49.3691 63.9336C49.2324 64.1328 49.0547 64.3242 48.8359 64.5078C48.6172 64.6875 48.3496 64.834 48.0332 64.9473C47.7207 65.0605 47.3574 65.1172 46.9434 65.1172ZM52.3047 63.5938L53.7695 58.6602H54.6719L54.4258 60.1367L52.9492 65H52.1406L52.3047 63.5938ZM51.4434 58.6602L52.5859 63.6172L52.6797 65H51.7773L50.0605 58.6602H51.4434ZM56.043 63.5586L57.1504 58.6602H58.5273L56.8164 65H55.9141L56.043 63.5586ZM54.8242 58.6602L56.2715 63.5352L56.4531 65H55.6445L54.1504 60.1309L53.9043 58.6602H54.8242Z" fill="#0D1217"/>
</svg>
