<svg width="345" height="56" viewBox="0 0 345 56" fill="none" xmlns="http://www.w3.org/2000/svg">
<rect width="345" height="56" rx="8" fill="#F0F0F3"/>
<path fill-rule="evenodd" clip-rule="evenodd" d="M147.757 18.6214C149.585 16.7929 152.55 16.7929 154.379 18.6214C156.207 20.45 156.207 23.4148 154.379 25.2434L144.893 34.7287C144.351 35.2706 144.032 35.5897 143.677 35.8665C143.259 36.1927 142.807 36.4725 142.328 36.7007C141.921 36.8943 141.493 37.037 140.766 37.2793L137.435 38.3897L136.633 38.6571C135.982 38.8739 135.265 38.7046 134.78 38.2197C134.295 37.7348 134.126 37.0175 134.343 36.367L135.721 32.2338C135.963 31.5067 136.106 31.0787 136.299 30.6724C136.528 30.1935 136.807 29.7409 137.134 29.3226C137.41 28.9677 137.729 28.6487 138.271 28.1067L147.757 18.6214ZM137.4 36.8201L140.242 35.8729C141.033 35.6092 141.369 35.4958 141.682 35.3466C142.063 35.1653 142.422 34.943 142.755 34.6837C143.028 34.4704 143.28 34.2205 143.87 33.6308L151.439 26.0614C150.651 25.7832 149.635 25.2676 148.683 24.3165C147.732 23.3654 147.217 22.3494 146.939 21.5607L139.369 29.1302C138.779 29.7199 138.53 29.9716 138.316 30.2451C138.057 30.5775 137.835 30.9371 137.653 31.3177C137.504 31.6307 137.391 31.9669 137.127 32.758L136.18 35.5995L137.4 36.8201ZM148.155 20.344C148.19 20.519 148.247 20.7568 148.344 21.0349C148.561 21.6608 148.971 22.4829 149.744 23.2558C150.517 24.0288 151.339 24.439 151.965 24.6562C152.243 24.7527 152.481 24.8105 152.656 24.8447L153.318 24.1827C154.561 22.9399 154.561 20.9249 153.318 19.6821C152.075 18.4393 150.06 18.4393 148.817 19.6821L148.155 20.344Z" fill="#40C4FF"/>
<path d="M181.074 31.2041C181.074 30.9404 181.033 30.7061 180.951 30.501C180.875 30.2959 180.737 30.1084 180.538 29.9385C180.339 29.7686 180.058 29.6045 179.694 29.4463C179.337 29.2822 178.88 29.1152 178.323 28.9453C177.714 28.7578 177.151 28.5498 176.636 28.3213C176.126 28.0869 175.681 27.8174 175.3 27.5127C174.919 27.2021 174.623 26.8477 174.412 26.4492C174.201 26.0449 174.096 25.5791 174.096 25.0518C174.096 24.5303 174.204 24.0557 174.421 23.6279C174.644 23.2002 174.957 22.8311 175.361 22.5205C175.771 22.2041 176.255 21.9609 176.812 21.791C177.368 21.6152 177.983 21.5273 178.657 21.5273C179.606 21.5273 180.424 21.7031 181.109 22.0547C181.801 22.4062 182.331 22.8779 182.7 23.4697C183.075 24.0615 183.263 24.7148 183.263 25.4297H181.074C181.074 25.0078 180.983 24.6357 180.802 24.3135C180.626 23.9854 180.356 23.7275 179.993 23.54C179.636 23.3525 179.182 23.2588 178.631 23.2588C178.109 23.2588 177.676 23.3379 177.33 23.4961C176.984 23.6543 176.727 23.8682 176.557 24.1377C176.387 24.4072 176.302 24.7119 176.302 25.0518C176.302 25.292 176.357 25.5117 176.469 25.7109C176.58 25.9043 176.75 26.0859 176.979 26.2559C177.207 26.4199 177.494 26.5752 177.84 26.7217C178.186 26.8682 178.593 27.0088 179.062 27.1436C179.771 27.3545 180.389 27.5889 180.916 27.8467C181.443 28.0986 181.883 28.3857 182.234 28.708C182.586 29.0303 182.85 29.3965 183.025 29.8066C183.201 30.2109 183.289 30.6709 183.289 31.1865C183.289 31.7256 183.181 32.2119 182.964 32.6455C182.747 33.0732 182.437 33.4395 182.032 33.7441C181.634 34.043 181.153 34.2744 180.591 34.4385C180.034 34.5967 179.413 34.6758 178.728 34.6758C178.112 34.6758 177.506 34.5938 176.908 34.4297C176.316 34.2656 175.777 34.0166 175.291 33.6826C174.805 33.3428 174.418 32.9209 174.131 32.417C173.844 31.9072 173.7 31.3125 173.7 30.6328H175.906C175.906 31.0488 175.977 31.4033 176.117 31.6963C176.264 31.9893 176.466 32.2295 176.724 32.417C176.981 32.5986 177.28 32.7334 177.62 32.8213C177.966 32.9092 178.335 32.9531 178.728 32.9531C179.243 32.9531 179.674 32.8799 180.02 32.7334C180.371 32.5869 180.635 32.3818 180.811 32.1182C180.986 31.8545 181.074 31.5498 181.074 31.2041ZM190.391 32.5928V28.0576C190.391 27.7178 190.329 27.4248 190.206 27.1787C190.083 26.9326 189.896 26.7422 189.644 26.6074C189.397 26.4727 189.087 26.4053 188.712 26.4053C188.366 26.4053 188.067 26.4639 187.815 26.5811C187.563 26.6982 187.367 26.8564 187.227 27.0557C187.086 27.2549 187.016 27.4805 187.016 27.7324H184.906C184.906 27.3574 184.997 26.9941 185.179 26.6426C185.36 26.291 185.624 25.9775 185.97 25.7021C186.315 25.4268 186.729 25.21 187.209 25.0518C187.689 24.8936 188.229 24.8145 188.826 24.8145C189.541 24.8145 190.174 24.9346 190.725 25.1748C191.281 25.415 191.718 25.7783 192.034 26.2646C192.356 26.7451 192.518 27.3486 192.518 28.0752V32.3027C192.518 32.7363 192.547 33.126 192.605 33.4717C192.67 33.8115 192.761 34.1074 192.878 34.3594V34.5H190.707C190.607 34.2715 190.528 33.9814 190.47 33.6299C190.417 33.2725 190.391 32.9268 190.391 32.5928ZM190.698 28.7168L190.716 30.0264H189.195C188.803 30.0264 188.457 30.0645 188.158 30.1406C187.859 30.2109 187.61 30.3164 187.411 30.457C187.212 30.5977 187.062 30.7676 186.963 30.9668C186.863 31.166 186.813 31.3916 186.813 31.6436C186.813 31.8955 186.872 32.127 186.989 32.3379C187.106 32.543 187.276 32.7041 187.499 32.8213C187.728 32.9385 188.003 32.9971 188.325 32.9971C188.759 32.9971 189.137 32.9092 189.459 32.7334C189.787 32.5518 190.045 32.332 190.232 32.0742C190.42 31.8105 190.52 31.5615 190.531 31.3271L191.217 32.2676C191.146 32.5078 191.026 32.7656 190.856 33.041C190.687 33.3164 190.464 33.5801 190.188 33.832C189.919 34.0781 189.594 34.2803 189.213 34.4385C188.838 34.5967 188.404 34.6758 187.912 34.6758C187.291 34.6758 186.737 34.5527 186.251 34.3066C185.765 34.0547 185.384 33.7178 185.108 33.2959C184.833 32.8682 184.695 32.3848 184.695 31.8457C184.695 31.3418 184.789 30.8965 184.977 30.5098C185.17 30.1172 185.451 29.7891 185.82 29.5254C186.195 29.2617 186.652 29.0625 187.191 28.9277C187.73 28.7871 188.346 28.7168 189.037 28.7168H190.698ZM197.686 32.8213L200.015 24.9902H202.212L198.907 34.5H197.536L197.686 32.8213ZM195.901 24.9902L198.274 32.8564L198.389 34.5H197.018L193.695 24.9902H195.901ZM207.591 34.6758C206.888 34.6758 206.252 34.5615 205.684 34.333C205.121 34.0986 204.641 33.7734 204.242 33.3574C203.85 32.9414 203.548 32.4521 203.337 31.8896C203.126 31.3271 203.021 30.7207 203.021 30.0703V29.7188C203.021 28.9746 203.129 28.3008 203.346 27.6973C203.562 27.0938 203.864 26.5781 204.251 26.1504C204.638 25.7168 205.095 25.3857 205.622 25.1572C206.149 24.9287 206.721 24.8145 207.336 24.8145C208.016 24.8145 208.61 24.9287 209.12 25.1572C209.63 25.3857 210.052 25.708 210.386 26.124C210.726 26.5342 210.978 27.0234 211.142 27.5918C211.312 28.1602 211.396 28.7871 211.396 29.4727V30.3779H204.049V28.8574H209.305V28.6904C209.293 28.3096 209.217 27.9521 209.076 27.6182C208.941 27.2842 208.733 27.0146 208.452 26.8096C208.171 26.6045 207.796 26.502 207.327 26.502C206.976 26.502 206.662 26.5781 206.387 26.7305C206.117 26.877 205.892 27.0908 205.71 27.3721C205.528 27.6533 205.388 27.9932 205.288 28.3916C205.194 28.7842 205.147 29.2266 205.147 29.7188V30.0703C205.147 30.4863 205.203 30.873 205.314 31.2305C205.432 31.582 205.602 31.8896 205.824 32.1533C206.047 32.417 206.316 32.625 206.633 32.7773C206.949 32.9238 207.31 32.9971 207.714 32.9971C208.224 32.9971 208.678 32.8945 209.076 32.6895C209.475 32.4844 209.82 32.1943 210.113 31.8193L211.229 32.9004C211.024 33.1992 210.758 33.4863 210.43 33.7617C210.102 34.0312 209.7 34.251 209.226 34.4209C208.757 34.5908 208.212 34.6758 207.591 34.6758Z" fill="#40C4FF"/>
</svg>
