<svg width="42" height="42" viewBox="12 8 42 42" fill="none" xmlns="http://www.w3.org/2000/svg">
    <g>
        <rect x="12" y="8" width="42" height="42" rx="21" fill="url(#paint0_linear_1_258)"
            shape-rendering="crispEdges" />
        <path fill-rule="evenodd" clip-rule="evenodd"
            d="M42.0481 27.3975L40.1887 32.976C38.8776 36.9091 38.2221 38.8757 37.2608 39.4346C36.3463 39.9662 35.2168 39.9662 34.3023 39.4346C33.3411 38.8757 32.6855 36.9091 31.3745 32.976C31.164 32.3445 31.0587 32.0287 30.882 31.7647C30.7108 31.509 30.4911 31.2892 30.2353 31.118C29.9713 30.9413 29.6556 30.836 29.024 30.6255C25.0908 29.3145 23.1243 28.6589 22.5654 27.6976C22.0338 26.7832 22.0338 25.6537 22.5654 24.7392C23.1243 23.7779 25.0908 23.1224 29.024 21.8113L34.6025 19.9519C39.4757 18.3274 41.9123 17.5152 43.1986 18.8014C44.4848 20.0876 43.6726 22.5243 42.0481 27.3975ZM34.1328 27.8107C33.8173 27.4916 33.8201 26.9772 34.1392 26.6617L38.7006 22.1505C39.0197 21.835 39.5341 21.8378 39.8496 22.1569C40.1652 22.4759 40.1623 22.9904 39.8433 23.3059L35.2819 27.817C34.9628 28.1326 34.4484 28.1297 34.1328 27.8107Z"
            fill="white" />
    </g>
    <defs>
        <linearGradient id="paint0_linear_1_258" x1="12" y1="8" x2="52.7604" y2="37.9865"
            gradientUnits="userSpaceOnUse">
            <stop stop-color="#40C4FF" />
            <stop offset="1" stop-color="#03A9F4" />
        </linearGradient>
    </defs>
</svg>