<svg width="66" height="66" viewBox="0 0 66 66" fill="none" xmlns="http://www.w3.org/2000/svg">
<g filter="url(#filter0_d_22_80)">
<rect x="12" y="8" width="42" height="42" rx="21" fill="white" shape-rendering="crispEdges"/>
<path fill-rule="evenodd" clip-rule="evenodd" d="M22.4375 29C22.4375 27.3547 23.7713 26.0208 25.4167 26.0208C27.062 26.0208 28.3958 27.3547 28.3958 29C28.3958 30.6454 27.062 31.9792 25.4167 31.9792C23.7713 31.9792 22.4375 30.6454 22.4375 29ZM25.4167 27.6458C24.6688 27.6458 24.0625 28.2521 24.0625 29C24.0625 29.7479 24.6688 30.3542 25.4167 30.3542C26.1646 30.3542 26.7708 29.7479 26.7708 29C26.7708 28.2521 26.1646 27.6458 25.4167 27.6458Z" fill="#2C2D3A"/>
<path fill-rule="evenodd" clip-rule="evenodd" d="M30.0208 29C30.0208 27.3547 31.3547 26.0208 33 26.0208C34.6453 26.0208 35.9792 27.3547 35.9792 29C35.9792 30.6454 34.6453 31.9792 33 31.9792C31.3547 31.9792 30.0208 30.6454 30.0208 29ZM33 27.6458C32.2521 27.6458 31.6458 28.2521 31.6458 29C31.6458 29.7479 32.2521 30.3542 33 30.3542C33.7479 30.3542 34.3542 29.7479 34.3542 29C34.3542 28.2521 33.7479 27.6458 33 27.6458Z" fill="#2C2D3A"/>
<path fill-rule="evenodd" clip-rule="evenodd" d="M40.5833 26.0208C38.938 26.0208 37.6042 27.3547 37.6042 29C37.6042 30.6454 38.938 31.9792 40.5833 31.9792C42.2287 31.9792 43.5625 30.6454 43.5625 29C43.5625 27.3547 42.2287 26.0208 40.5833 26.0208ZM39.2292 29C39.2292 28.2521 39.8354 27.6458 40.5833 27.6458C41.3312 27.6458 41.9375 28.2521 41.9375 29C41.9375 29.7479 41.3312 30.3542 40.5833 30.3542C39.8354 30.3542 39.2292 29.7479 39.2292 29Z" fill="#2C2D3A"/>
</g>
<defs>
<filter id="filter0_d_22_80" x="0" y="0" width="66" height="66" filterUnits="userSpaceOnUse" color-interpolation-filters="sRGB">
<feFlood flood-opacity="0" result="BackgroundImageFix"/>
<feColorMatrix in="SourceAlpha" type="matrix" values="0 0 0 0 0 0 0 0 0 0 0 0 0 0 0 0 0 0 127 0" result="hardAlpha"/>
<feOffset dy="4"/>
<feGaussianBlur stdDeviation="6"/>
<feComposite in2="hardAlpha" operator="out"/>
<feColorMatrix type="matrix" values="0 0 0 0 0.0509804 0 0 0 0 0.0392157 0 0 0 0 0.172549 0 0 0 0.06 0"/>
<feBlend mode="normal" in2="BackgroundImageFix" result="effect1_dropShadow_22_80"/>
<feBlend mode="normal" in="SourceGraphic" in2="effect1_dropShadow_22_80" result="shape"/>
</filter>
</defs>
</svg>
