<svg width="80" height="68" viewBox="0 0 80 68" fill="none" xmlns="http://www.w3.org/2000/svg">
<rect x="19" width="42" height="42" rx="21" fill="url(#paint0_linear_22_52)"/>
<path d="M40 14.5V21L44.3334 23.1667M50.8334 21C50.8334 26.9831 45.9831 31.8333 40 31.8333C34.0169 31.8333 29.1667 26.9831 29.1667 21C29.1667 15.0169 34.0169 10.1667 40 10.1667C45.9831 10.1667 50.8334 15.0169 50.8334 21Z" stroke="white" stroke-width="2" stroke-linecap="round" stroke-linejoin="round"/>
<path d="M28.377 56.4688V65H26.918V56.4688H28.377ZM31.0547 56.4688V57.6406H24.2637V56.4688H31.0547ZM33.5508 58.6602V65H32.1328V58.6602H33.5508ZM32.0391 56.9961C32.0391 56.7812 32.1094 56.6035 32.25 56.4629C32.3945 56.3184 32.5938 56.2461 32.8477 56.2461C33.0977 56.2461 33.2949 56.3184 33.4395 56.4629C33.584 56.6035 33.6562 56.7812 33.6562 56.9961C33.6562 57.207 33.584 57.3828 33.4395 57.5234C33.2949 57.6641 33.0977 57.7344 32.8477 57.7344C32.5938 57.7344 32.3945 57.6641 32.25 57.5234C32.1094 57.3828 32.0391 57.207 32.0391 56.9961ZM36.5098 59.9492V65H35.0977V58.6602H36.4277L36.5098 59.9492ZM36.2812 61.5957L35.8008 61.5898C35.8008 61.1523 35.8555 60.748 35.9648 60.377C36.0742 60.0059 36.2344 59.6836 36.4453 59.4102C36.6562 59.1328 36.918 58.9199 37.2305 58.7715C37.5469 58.6191 37.9121 58.543 38.3262 58.543C38.6152 58.543 38.8789 58.5859 39.1172 58.6719C39.3594 58.7539 39.5684 58.8848 39.7441 59.0645C39.9238 59.2441 40.0605 59.4746 40.1543 59.7559C40.252 60.0371 40.3008 60.377 40.3008 60.7754V65H38.8887V60.8984C38.8887 60.5898 38.8418 60.3477 38.748 60.1719C38.6582 59.9961 38.5273 59.8711 38.3555 59.7969C38.1875 59.7188 37.9863 59.6797 37.752 59.6797C37.4863 59.6797 37.2598 59.7305 37.0723 59.832C36.8887 59.9336 36.7383 60.0723 36.6211 60.248C36.5039 60.4238 36.418 60.627 36.3633 60.8574C36.3086 61.0879 36.2812 61.334 36.2812 61.5957ZM40.2129 61.2207L39.5508 61.3672C39.5508 60.9844 39.6035 60.623 39.709 60.2832C39.8184 59.9395 39.9766 59.6387 40.1836 59.3809C40.3945 59.1191 40.6543 58.9141 40.9629 58.7656C41.2715 58.6172 41.625 58.543 42.0234 58.543C42.3477 58.543 42.6367 58.5879 42.8906 58.6777C43.1484 58.7637 43.3672 58.9004 43.5469 59.0879C43.7266 59.2754 43.8633 59.5195 43.957 59.8203C44.0508 60.1172 44.0977 60.4766 44.0977 60.8984V65H42.6797V60.8926C42.6797 60.5723 42.6328 60.3242 42.5391 60.1484C42.4492 59.9727 42.3203 59.8516 42.1523 59.7852C41.9844 59.7148 41.7832 59.6797 41.5488 59.6797C41.3301 59.6797 41.1367 59.7207 40.9688 59.8027C40.8047 59.8809 40.666 59.9922 40.5527 60.1367C40.4395 60.2773 40.3535 60.4395 40.2949 60.623C40.2402 60.8066 40.2129 61.0059 40.2129 61.2207ZM48.3457 65.1172C47.877 65.1172 47.4531 65.041 47.0742 64.8887C46.6992 64.7324 46.3789 64.5156 46.1133 64.2383C45.8516 63.9609 45.6504 63.6348 45.5098 63.2598C45.3691 62.8848 45.2988 62.4805 45.2988 62.0469V61.8125C45.2988 61.3164 45.3711 60.8672 45.5156 60.4648C45.6602 60.0625 45.8613 59.7188 46.1191 59.4336C46.377 59.1445 46.6816 58.9238 47.0332 58.7715C47.3848 58.6191 47.7656 58.543 48.1758 58.543C48.6289 58.543 49.0254 58.6191 49.3652 58.7715C49.7051 58.9238 49.9863 59.1387 50.209 59.416C50.4355 59.6895 50.6035 60.0156 50.7129 60.3945C50.8262 60.7734 50.8828 61.1914 50.8828 61.6484V62.252H45.9844V61.2383H49.4883V61.127C49.4805 60.873 49.4297 60.6348 49.3359 60.4121C49.2461 60.1895 49.1074 60.0098 48.9199 59.873C48.7324 59.7363 48.4824 59.668 48.1699 59.668C47.9355 59.668 47.7266 59.7188 47.543 59.8203C47.3633 59.918 47.2129 60.0605 47.0918 60.248C46.9707 60.4355 46.877 60.6621 46.8105 60.9277C46.748 61.1895 46.7168 61.4844 46.7168 61.8125V62.0469C46.7168 62.3242 46.7539 62.582 46.8281 62.8203C46.9062 63.0547 47.0195 63.2598 47.168 63.4355C47.3164 63.6113 47.4961 63.75 47.707 63.8516C47.918 63.9492 48.1582 63.998 48.4277 63.998C48.7676 63.998 49.0703 63.9297 49.3359 63.793C49.6016 63.6562 49.832 63.4629 50.0273 63.2129L50.7715 63.9336C50.6348 64.1328 50.457 64.3242 50.2383 64.5078C50.0195 64.6875 49.752 64.834 49.4355 64.9473C49.123 65.0605 48.7598 65.1172 48.3457 65.1172ZM53.4023 59.8672V65H51.9902V58.6602H53.3379L53.4023 59.8672ZM55.3418 58.6191L55.3301 59.9316C55.2441 59.916 55.1504 59.9043 55.0488 59.8965C54.9512 59.8887 54.8535 59.8848 54.7559 59.8848C54.5137 59.8848 54.3008 59.9199 54.1172 59.9902C53.9336 60.0566 53.7793 60.1543 53.6543 60.2832C53.5332 60.4082 53.4395 60.5605 53.373 60.7402C53.3066 60.9199 53.2676 61.1211 53.2559 61.3438L52.9336 61.3672C52.9336 60.9688 52.9727 60.5996 53.0508 60.2598C53.1289 59.9199 53.2461 59.6211 53.4023 59.3633C53.5625 59.1055 53.7617 58.9043 54 58.7598C54.2422 58.6152 54.5215 58.543 54.8379 58.543C54.9238 58.543 55.0156 58.5508 55.1133 58.5664C55.2148 58.582 55.291 58.5996 55.3418 58.6191Z" fill="#0D1217"/>
<defs>
<linearGradient id="paint0_linear_22_52" x1="19" y1="0" x2="59.7604" y2="29.9865" gradientUnits="userSpaceOnUse">
<stop stop-color="#40C4FF"/>
<stop offset="1" stop-color="#03A9F4"/>
</linearGradient>
</defs>
</svg>
